<svg xmlns="http://www.w3.org/2000/svg" viewBox="0 0 720 420" role="img" aria-labelledby="title desc">
  <title id="title">Servo power MOSFET switch module</title>
  <desc id="desc">Stylized MOSFET switch board with screw terminals and control pins.</desc>
  <defs>
    <linearGradient id="pcb" x1="0" x2="1" y1="0" y2="1">
      <stop offset="0" stop-color="#153326"/>
      <stop offset="1" stop-color="#07110c"/>
    </linearGradient>
    <linearGradient id="terminal" x1="0" x2="1">
      <stop offset="0" stop-color="#5d6f67"/>
      <stop offset="1" stop-color="#dfe8e4"/>
    </linearGradient>
    <filter id="shadow" x="-20%" y="-20%" width="140%" height="150%">
      <feDropShadow dx="0" dy="18" stdDeviation="18" flood-color="#000" flood-opacity=".35"/>
    </filter>
  </defs>
  <rect width="720" height="420" fill="none"/>
  <g filter="url(#shadow)" transform="translate(102 58) rotate(-4 258 152)">
    <rect x="0" y="0" width="516" height="304" rx="28" fill="url(#pcb)" stroke="#5ad68b" stroke-opacity=".45" stroke-width="5"/>
    <g transform="translate(36 48)">
      <rect x="0" y="0" width="92" height="196" rx="10" fill="url(#terminal)"/>
      <rect x="18" y="22" width="56" height="34" rx="6" fill="#26332d"/>
      <rect x="18" y="82" width="56" height="34" rx="6" fill="#26332d"/>
      <rect x="18" y="142" width="56" height="34" rx="6" fill="#26332d"/>
      <circle cx="46" cy="39" r="10" fill="#c6d5cf"/>
      <circle cx="46" cy="99" r="10" fill="#c6d5cf"/>
      <circle cx="46" cy="159" r="10" fill="#c6d5cf"/>
    </g>
    <g transform="translate(388 48)">
      <rect x="0" y="0" width="92" height="196" rx="10" fill="url(#terminal)"/>
      <rect x="18" y="22" width="56" height="34" rx="6" fill="#26332d"/>
      <rect x="18" y="82" width="56" height="34" rx="6" fill="#26332d"/>
      <rect x="18" y="142" width="56" height="34" rx="6" fill="#26332d"/>
      <circle cx="46" cy="39" r="10" fill="#c6d5cf"/>
      <circle cx="46" cy="99" r="10" fill="#c6d5cf"/>
      <circle cx="46" cy="159" r="10" fill="#c6d5cf"/>
    </g>
    <rect x="170" y="54" width="78" height="78" rx="10" fill="#111815" stroke="#8fa39a" stroke-width="3"/>
    <rect x="270" y="54" width="78" height="78" rx="10" fill="#111815" stroke="#8fa39a" stroke-width="3"/>
    <g fill="#cdd9d4">
      <rect x="181" y="136" width="10" height="30" rx="3"/>
      <rect x="203" y="136" width="10" height="30" rx="3"/>
      <rect x="225" y="136" width="10" height="30" rx="3"/>
      <rect x="281" y="136" width="10" height="30" rx="3"/>
      <rect x="303" y="136" width="10" height="30" rx="3"/>
      <rect x="325" y="136" width="10" height="30" rx="3"/>
    </g>
    <rect x="196" y="205" width="126" height="38" rx="8" fill="#18231d" stroke="#5ad68b" stroke-opacity=".5"/>
    <g fill="#d9e6e0">
      <circle cx="216" cy="224" r="5"/>
      <circle cx="244" cy="224" r="5"/>
      <circle cx="272" cy="224" r="5"/>
      <circle cx="300" cy="224" r="5"/>
    </g>
    <path d="M132 92h34M348 92h40" stroke="#ff5f4b" stroke-width="12" stroke-linecap="round"/>
    <path d="M132 157h34M348 157h40" stroke="#dfe8e4" stroke-width="12" stroke-linecap="round"/>
    <path d="M256 93h28" stroke="#71b8ff" stroke-width="9" stroke-linecap="round"/>
    <text x="258" y="286" text-anchor="middle" font-family="Arial, sans-serif" font-size="28" font-weight="700" fill="#dfffea">SERVO POWER SWITCH</text>
  </g>
</svg>
